# xmcd
#
# Track frame offsets:
#	150
#	9506
#	19504
#	32055
#	41330
#	50257
#	61633
#	72258
#	85795
#	95527
#	107187
#	118369
#	129958
#	142296
#	154683
#	167095
#	180185
#	194198
#
# Disc length: 2766 seconds
#
# Revision: 0
# Processed by: cddbd v1.5.2PL0 Copyright (c) Steve Scherf et al.
# Submitted via: audiograbber 1.83.01
#
DISCID=ed0acc12
DTITLE=George Jones - Heartaches and Hangovers
DYEAR=2000
DGENRE=Country
TTITLE0=The Race Is On
TTITLE1=Heartaches and Hangovers
TTITLE2=Don't Be Angry
TTITLE3=Living On Easy Street
TTITLE4=The Love Bug
TTITLE5=Talk Back Trembling Lips
TTITLE6=Ragged But Right
TTITLE7=Come Sundown
TTITLE8=Honky Tonk Downstairs
TTITLE9=We Must Have Been Out Of Our Minds
TTITLE10=Ruby Don't Take Your Love To Town
TTITLE11=Fightin' Side Of Me
TTITLE12=Okie From Muskogee
TTITLE13=Blue Side Of Lonesome
TTITLE14=Take Me
TTITLE15=Hello Darlin'
TTITLE16=All I Have To Offer You (Is Me)
TTITLE17=Almost Persuaded
EXTD=
EXTT0=
EXTT1=
EXTT2=
EXTT3=
EXTT4=
EXTT5=
EXTT6=
EXTT7=
EXTT8=
EXTT9=
EXTT10=
EXTT11=
EXTT12=
EXTT13=
EXTT14=
EXTT15=
EXTT16=
EXTT17=
PLAYORDER=
